/* XPM */
static char * xmonad_logo_xpm[] = {
"18 18 2 1",
" 	c None",
".	c #FFFFFF",
"                  ",
"  ....      ..... ",
"  .....     ....  ",
"   ....    ....   ",
"    ....    ..    ",
"    .....   ..    ",
"     .....        ",
"      ....        ",
"       ....       ",
"      ......      ",
"      .......     ",
"     ........     ",
"    ....  ....    ",
"   .....  .....   ",
"   ....    ....   ",
"  ....      ....  ",
" .....      ..... ",
"                  "};
